<?xml version="1.0" encoding="utf-8"?>
<!-- Generator: Adobe Illustrator 25.0.1, SVG Export Plug-In . SVG Version: 6.00 Build 0)  -->
<svg version="1.1" id="Layer_1" xmlns:figma="http://www.figma.com/figma/ns"
	 xmlns="http://www.w3.org/2000/svg" xmlns:xlink="http://www.w3.org/1999/xlink" x="0px" y="0px" viewBox="0 0 109 24"
	 style="enable-background:new 0 0 109 24;" xml:space="preserve">
<style type="text/css">
	.st0{display:none;}
	.st1{display:inline;}
	.st2{fill:#FF4400;}
	.st3{fill:none;}
	.st4{font-family:'Dubai-Bold';}
	.st5{font-size:27px;}
	.st6{letter-spacing:4;}
</style>
<g transform="translate(-1470)" figma:type="canvas">
	<g transform="translate(1470)" figma:type="vector" class="st0">
		<g class="st1">
			<path id="b" class="st2" d="M6.6,69.8c0.3,0.3,0.1,0.8-0.4,0.8H0.3c-0.3,0-0.6-0.1-0.7-0.3l-9.4-10.5v10.4c0,0.3-0.2,0.5-0.5,0.5
				h-5.3c-0.3,0-0.5-0.2-0.5-0.5v-23c0-0.3,0.2-0.5,0.5-0.5h5.3c0.3,0,0.5,0.2,0.5,0.5v9.8l9.1-10c0.2-0.2,0.5-0.3,0.7-0.3h5.8
				c0.4,0,0.7,0.5,0.4,0.8L-3.7,58L6.6,69.8L6.6,69.8z"/>
		</g>
		<g class="st1">
			<path id="c" class="st2" d="M29.8,70.6c-0.2,0-0.4-0.1-0.5-0.3l-2-4.7H16.7l-2,4.7c-0.1,0.2-0.3,0.3-0.5,0.3H9
				c-0.4,0-0.6-0.4-0.5-0.7l10.8-23c0.1-0.2,0.3-0.3,0.5-0.3h4.4c0.2,0,0.4,0.1,0.5,0.3l10.8,23c0.2,0.3-0.1,0.7-0.5,0.7
				C34.9,70.6,29.8,70.6,29.8,70.6z M18.7,60.9h6.6L22,53.2L18.7,60.9L18.7,60.9z"/>
		</g>
		<g class="st1">
			<path id="d" class="st2" d="M39.3,70.6c-0.3,0-0.5-0.2-0.5-0.5v-23c0-0.3,0.2-0.5,0.5-0.5h5.3c0.3,0,0.5,0.2,0.5,0.5v18.4h9.8
				c0.3,0,0.5,0.2,0.5,0.5v4.1c0,0.3-0.2,0.5-0.5,0.5H39.3z"/>
		</g>
		<g class="st1">
			<path id="e" class="st2" d="M59.1,47.1c0-0.3,0.2-0.5,0.5-0.5h9.3c2.7,0,5,0.5,6.9,1.4c1.9,1,3.4,2.3,4.4,4.2
				c1,1.8,1.5,3.9,1.5,6.4c0,2.5-0.5,4.7-1.5,6.5c-1,1.8-2.5,3.2-4.4,4.1c-1.9,1-4.2,1.4-6.9,1.4h-9.3c-0.3,0-0.5-0.2-0.5-0.5V47.1z
				 M68.5,65.6c2.4,0,4.1-0.6,5.3-1.7s1.7-2.9,1.7-5.2c0-2.3-0.6-4.1-1.7-5.2c-1.2-1.2-2.9-1.7-5.3-1.7h-3.1v13.9H68.5z"/>
		</g>
		<g class="st1">
			<path id="f" class="st2" d="M86.7,70.6c-0.3,0-0.5-0.2-0.5-0.5v-23c0-0.3,0.2-0.5,0.5-0.5H92c0.3,0,0.5,0.2,0.5,0.5v23
				c0,0.3-0.2,0.5-0.5,0.5H86.7z"/>
		</g>
	</g>
	<rect x="1470" class="st3" width="109" height="24"/>
	<text transform="matrix(1 0 0 1 1481.3003 18.9268)" class="st2 st4 st5 st6">COMP</text>
</g>
</svg>
