<?xml version="1.0" encoding="utf-8"?>
<!-- Generator: Adobe Illustrator 25.4.1, SVG Export Plug-In . SVG Version: 6.00 Build 0)  -->
<svg version="1.1" id="Layer_1" xmlns:figma="http://www.figma.com/figma/ns"
	 xmlns="http://www.w3.org/2000/svg" xmlns:xlink="http://www.w3.org/1999/xlink" x="0px" y="0px" viewBox="0 0 109 24"
	 style="enable-background:new 0 0 109 24;" xml:space="preserve">
<style type="text/css">
	.st0{display:none;}
	.st1{display:inline;}
	.st2{fill:#FF4400;}
	.st3{fill:none;}
	.st4{font-family:'Dubai-Bold';}
	.st5{font-size:27px;}
	.st6{letter-spacing:3;}
	.st7{fill-rule:evenodd;clip-rule:evenodd;fill:#0C0C0D;}
	.st8{fill-rule:evenodd;clip-rule:evenodd;fill:#FFFFFF;}
</style>
<g transform="translate(-1470)" figma:type="canvas">
	<g transform="translate(1470)" figma:type="vector" class="st0">
		<g class="st1">
			<path id="b" class="st2" d="M18.5,70.9c0.3,0.3,0.1,0.8-0.4,0.8h-5.9c-0.3,0-0.6-0.1-0.7-0.3L2.1,60.9v10.4
				c0,0.3-0.2,0.5-0.5,0.5h-5.3c-0.3,0-0.5-0.2-0.5-0.5v-23c0-0.3,0.2-0.5,0.5-0.5h5.3c0.3,0,0.5,0.2,0.5,0.5v9.8l9.1-10
				c0.2-0.2,0.5-0.3,0.7-0.3h5.8c0.4,0,0.7,0.5,0.4,0.8L8.2,59.1L18.5,70.9L18.5,70.9z"/>
		</g>
		<g class="st1">
			<path id="c" class="st2" d="M41.7,71.7c-0.2,0-0.4-0.1-0.5-0.3l-2-4.7H28.6l-2,4.7c-0.1,0.2-0.3,0.3-0.5,0.3h-5.2
				c-0.4,0-0.6-0.4-0.5-0.7l10.8-23c0.1-0.2,0.3-0.3,0.5-0.3h4.4c0.2,0,0.4,0.1,0.5,0.3l10.8,23c0.2,0.3-0.1,0.7-0.5,0.7
				C46.8,71.7,41.7,71.7,41.7,71.7z M30.6,62h6.6l-3.3-7.7L30.6,62L30.6,62z"/>
		</g>
		<g class="st1">
			<path id="d" class="st2" d="M51.2,71.7c-0.3,0-0.5-0.2-0.5-0.5v-23c0-0.3,0.2-0.5,0.5-0.5h5.3c0.3,0,0.5,0.2,0.5,0.5v18.4h9.8
				c0.3,0,0.5,0.2,0.5,0.5v4.1c0,0.3-0.2,0.5-0.5,0.5H51.2z"/>
		</g>
		<g class="st1">
			<path id="e" class="st2" d="M71,48.2c0-0.3,0.2-0.5,0.5-0.5h9.3c2.7,0,5,0.5,6.9,1.4c1.9,1,3.4,2.3,4.4,4.2
				c1,1.8,1.5,3.9,1.5,6.4s-0.5,4.7-1.5,6.5s-2.5,3.2-4.4,4.1c-1.9,1-4.2,1.4-6.9,1.4h-9.3c-0.3,0-0.5-0.2-0.5-0.5
				C71,71.2,71,48.2,71,48.2z M80.4,66.7c2.4,0,4.1-0.6,5.3-1.7c1.2-1.1,1.7-2.9,1.7-5.2s-0.6-4.1-1.7-5.2c-1.2-1.2-2.9-1.7-5.3-1.7
				h-3.1v13.9L80.4,66.7L80.4,66.7z"/>
		</g>
		<g class="st1">
			<path id="f" class="st2" d="M98.6,71.7c-0.3,0-0.5-0.2-0.5-0.5v-23c0-0.3,0.2-0.5,0.5-0.5h5.3c0.3,0,0.5,0.2,0.5,0.5v23
				c0,0.3-0.2,0.5-0.5,0.5H98.6z"/>
		</g>
	</g>
	<rect x="1481.9" y="1.1" class="st3" width="109" height="24"/>
	<text transform="matrix(1 0 0 1 1494.2355 20.3577)" class="st2 st4 st5 st6">TECH</text>
</g>
<g id="Ninja_Samurai_Warrior_Fighter_Character_Cartoon_Martial_Art_Weapon_Shuriken_00000021830009677481651190000004934096000246015134_">
	<path class="st7" d="M16.3,22.1c0.2,0,0.3-0.2,0.3-0.4c0-0.2-0.1-0.3-0.3-0.4c-2.3-0.2-5.1,0.1-8.4,1c-1.5,0.4-2.5,0.8-3.1,1.1
		c-0.2,0.4-0.7,0.6-1.5,0.7c-1.1,0-2.2,0-3.2,0c-0.5-0.3-0.3-0.7,0.6-1.1c2.5-1.3,4.5-2.5,6.2-3.6c1.1-0.5,1.9-0.9,2.2-1.2
		c0.9-1.1,0.7-1.9-0.7-2.4c-0.7,0.1-1,0.5-0.9,1.1c0,0.2,0.2,1.2,0.4,1.9c0.3,1.6,0.4,2.8-1.1,0.4c-0.5-0.7-1.1-1.8-1.8-3.3
		c-0.3-0.7-0.1-1.4,0.6-1.9c0.5-0.3,1-0.5,1.6-0.4c-1.5-2.4-1.6-5.2-0.4-7.6c1.3-1.8,3.4-3.1,5.8-3.4c2.4-0.3,4.8,0.4,6.6,1.8
		c2.3,1.6,3.4,4.2,2.9,6.7c-0.1,0.4-0.2,0.7-0.4,1c0.5-0.4,1.2-0.2,1.7-0.5c0.6-0.3,1.2-0.5,1.5-0.4c1.4,0.1,0,1.2-1.2,2.1
		c-1.1,1.1-3.6,3.1-5.3,3.1c0.2,0.5,0.3,1,0.3,1.6c1.3,0,2.1,0.1,2.6,0.4c0.6,0.5,0.8,1.3,0.3,1.9c-0.5,0.5-1,1-1.6,1.4
		c-0.1,0.2,0,0.4,0.4,0.6c0.7,0.1,0.9,0.5,0.5,1.1c-2.5,0-4.1,0-4.8,0c-0.2-0.2-0.4-0.4-0.4-0.7C15.9,22.5,16.1,22.3,16.3,22.1
		L16.3,22.1L16.3,22.1z"/>
	<path class="st8" d="M19.8,12.3c0.7-0.8,1-1.7,0.8-2.7c-3.8,0.9-7.8,0.5-11.2-1.2c0.9,4.3,2.8,5.6,5.6,4.1c0.6-0.4,1.4-0.4,1.9,0
		C17.8,13.2,19,13.1,19.8,12.3L19.8,12.3L19.8,12.3z"/>
	<path class="st7" d="M8.4,21.2c0.3-0.8,0.3-1.5,0-2.4c-0.9,0.3-1.4,0.6-1.6,0.8c-0.2,0.4-0.2,0.9,0.2,1.2
		C7.4,21.3,7.9,21.4,8.4,21.2L8.4,21.2L8.4,21.2z"/>
	<path class="st7" d="M13.7,12.5c0.4,0,0.5-0.3,0.5-0.5c0-0.4-0.2-0.7-0.5-0.7c-0.4,0-0.8,0.3-0.8,0.7
		C12.9,12.1,13.3,12.5,13.7,12.5L13.7,12.5L13.7,12.5z"/>
	<path class="st7" d="M17.9,12.5c0.4,0,0.6-0.3,0.6-0.4c0-0.3-0.3-0.6-0.6-0.6c-0.3,0-0.5,0.3-0.5,0.6
		C17.4,12.2,17.6,12.5,17.9,12.5L17.9,12.5L17.9,12.5z"/>
	<path class="st7" d="M11.6,9.8c-0.2,0.1-0.2,0.5-0.2,0.9c1.1,0.1,1.9,0.3,2.8,0.8c0-0.2,0-0.4,0-0.6C13.7,10.4,12.7,9.9,11.6,9.8
		L11.6,9.8L11.6,9.8z"/>
	<path class="st7" d="M19.7,10.2c0.2,0.1,0.2,0.4,0.2,0.7c-1,0.1-1.7,0.2-2.5,0.7c0-0.2,0-0.3,0-0.5C17.9,10.7,18.7,10.3,19.7,10.2
		L19.7,10.2L19.7,10.2z"/>
	<path class="st7" d="M27.4,14.6c-2.9-7.1-6.2-12.7-12.3-18l-2.4-1c6.4,4.9,10.5,11.6,13.4,18.9C26,14.9,27.1,14.9,27.4,14.6
		L27.4,14.6L27.4,14.6z"/>
	<polygon class="st7" points="25.5,9.1 23.3,9.9 23.3,10.4 25.9,9.5 25.5,9.1 	"/>
	<path class="st7" d="M8,7.5V7.3C4.5,3.6,2.6,3.1-1.4,6.8c-1.1,0.8-2.5,0.7-3.3-0.3c0,0,0.6-0.8,1.5-2.2c-0.2,1.6,0.3,2.2,1.5,1.4
		c3.8-3.9,7-2.1,9.8,1l0.2,0.1L8,7.5L8,7.5z"/>
	<path class="st7" d="M7.9,8L7.9,8C5.4,6.4,3.5,7,0.4,9.9c-1.1,0.8-2.5,0.6-3.3-0.3c0,0,0.4-0.8,1.3-2.3c0,1.6,0.5,2.3,1.7,1.5
		C3,5.9,5.4,5.9,7.9,7.5H8L7.9,8L7.9,8z"/>
</g>
</svg>
